<svg width="56" height="22" viewBox="0 0 56 22" fill="none" xmlns="http://www.w3.org/2000/svg">
<path d="M14.8681 21.9099C14.3429 21.8639 14.0232 21.5654 13.9319 21.106H13.8405C13.5893 21.0831 13.361 20.9912 13.2011 20.8534L12.9499 20.9453C12.242 21.1749 11.3515 21.106 10.6892 21.0142C10.164 20.9453 9.84431 20.6926 9.75297 20.2333L9.66162 20.2104C9.02223 20.1185 8.70253 19.774 8.70253 19.1309V13.1827C7.92612 14.6525 6.94419 15.9616 5.80241 16.9951C4.77481 17.8908 3.79288 18.1893 2.71961 17.753C2.24006 17.5692 1.80618 17.2477 1.46365 16.8573C0.984104 16.6276 0.550228 16.2372 0.253366 15.8008C-0.043497 15.3415 -0.043497 14.997 0.0706809 14.5836C0.184859 14.1932 0.367543 13.9176 0.732913 13.5501C2.49125 11.8736 3.79288 9.73772 4.36377 7.67075H3.24483C2.51409 7.67075 1.9432 7.34922 1.66917 6.79803C0.892762 6.59133 0.43605 5.97124 0.43605 5.09852V3.30715C0.43605 2.64113 0.801419 2.27366 1.46365 2.27366H7.81194C8.15448 2.27366 8.45134 2.34256 8.70253 2.4574V1.49281C8.70253 0.826787 9.0679 0.459326 9.73013 0.459326H11.6483C12.1507 0.459326 12.5846 0.620091 12.8814 0.895685C12.9271 0.298562 13.2925 0 13.909 0H15.9414C16.6721 0 17.243 0.321528 17.5399 0.872719C18.2935 1.07942 18.773 1.72247 18.773 2.59519V17.9826C18.773 18.7175 18.7959 19.3606 18.6588 19.9807C18.3163 21.5654 16.969 22.1166 14.8681 21.9099ZM13.909 11.1616V20.0726C15.6217 20.2563 16.421 19.9118 16.6265 18.9472C16.7635 18.3271 16.7178 17.6152 16.7178 16.5817V1.79137C16.7178 1.28611 16.4666 1.03348 15.9414 1.03348H13.909V8.29084H12.4247V2.2507C12.4247 1.74544 12.1735 1.49281 11.6483 1.49281H9.73013V19.1769C10.3924 19.2687 11.0774 19.3376 11.6255 19.1539C12.1735 18.9931 12.4247 18.6257 12.4247 17.7759V11.1616H13.909ZM2.05738 15.9846C2.67394 16.2372 3.26766 16.1453 4.08974 15.4104C6.51031 13.2516 8.51984 9.18652 8.51984 5.02962V3.97317C8.51984 3.49088 8.29149 3.30715 7.81194 3.30715H1.46365V5.09852C1.46365 5.58081 1.69201 5.83344 2.21723 5.83344H5.71107C5.57405 8.6583 3.90706 12.2181 0.892762 14.8133C1.07545 15.3415 1.55499 15.8008 2.05738 15.9846Z" fill="#1E2227"/>
<path d="M34.1203 21.818L29.2107 20.2793C28.3657 20.8075 27.361 21.2898 26.2877 21.6572C25.0317 22.0477 24.0955 22.1395 23.2734 21.7491C22.8624 21.5883 22.5427 21.3127 22.2915 20.9682L22.2458 20.9453C21.4466 20.6008 20.9213 19.8659 20.7615 18.9242C20.6702 18.419 20.7843 18.0745 21.0355 17.73C21.2867 17.3625 21.5836 17.1788 22.1088 16.9951C24.9404 15.9846 26.242 15.1807 26.242 14.7673L26.2649 14.2621H21.5836C20.8528 14.2621 20.2819 13.9405 19.9851 13.3894C19.2315 13.1827 18.752 12.5396 18.752 11.6669V9.94441C18.752 9.27839 19.1173 8.91093 19.7796 8.91093H23.3419C22.0631 8.10711 21.3324 6.88989 21.3324 5.39708C21.3324 2.48036 24.1868 0.459326 28.2516 0.43636C30.6721 0.413394 32.6817 1.14832 33.892 2.36553C35.3306 3.26122 36.1983 4.59326 36.1983 6.2009C36.1983 7.25735 35.833 8.17601 35.1707 8.91093H35.9015C36.6322 8.91093 37.2031 9.23246 37.5 9.78365C38.2535 9.99035 38.7331 10.6334 38.7331 11.5061V13.2286C38.7331 13.8946 38.3677 14.2621 37.7055 14.2621H32.9785C32.2706 14.2621 31.9053 14.0094 31.9509 13.5501C31.9053 13.9176 31.7682 14.2161 31.5856 14.4688C31.8596 14.7903 32.0194 15.2037 32.0194 15.709L33.9148 16.3061C34.5542 16.5128 35.0337 16.8343 35.3534 17.2707C36.3125 17.707 36.8606 18.4879 36.8149 19.5673C36.7692 20.4859 36.244 21.3127 35.4448 21.7721C34.9881 22.0247 34.5999 21.9788 34.1203 21.818ZM28.2516 9.04873C32.2478 9.04873 34.1431 7.44108 34.1431 5.39708C34.1431 3.33011 32.0879 1.44688 28.2516 1.46984C24.4152 1.49281 22.36 3.33011 22.36 5.39708C22.36 7.44108 24.2553 9.04873 28.2516 9.04873ZM28.2516 6.70616C26.3105 6.70616 25.2829 6.15497 25.2829 5.30522C25.2829 4.47843 26.5161 3.74351 28.2516 3.74351C29.9871 3.74351 31.2202 4.47843 31.2202 5.30522C31.2202 6.15497 30.1926 6.70616 28.2516 6.70616ZM27.0184 12.4248V13.5961C28.7539 13.7798 29.7587 13.4812 29.9186 12.5855L29.9414 12.4248H36.6779V10.7023C36.6779 10.197 36.4267 9.94441 35.9015 9.94441H19.7796V11.6669C19.7796 12.1721 20.0308 12.4248 20.556 12.4248H27.0184ZM28.0232 18.3501L33.7549 20.1415C34.3487 19.8888 34.7369 19.3376 34.7597 18.7175C34.7825 18.0745 34.4857 17.5692 33.6179 17.2936L29.7815 16.0994C29.8957 15.7549 29.9642 15.3645 29.9642 14.9511C29.9642 14.3999 29.713 14.1243 29.1878 14.1243H27.2925L27.2696 14.7903C27.2468 16.0764 25.0774 17.0869 21.7206 18.2123C21.7206 19.085 22.0403 19.751 22.6568 20.0037C23.2506 20.2793 23.9356 20.1874 24.9404 19.8659C25.968 19.5214 27.087 19.0161 28.0232 18.3501Z" fill="#1E2227"/>
<path d="M52.0023 21.9099C51.4543 21.8639 51.1346 21.5654 51.0433 21.106H50.9747C50.3125 21.0371 49.9928 20.6467 49.9928 20.0037V15.4334C48.44 15.4793 47.4809 15.2267 46.9557 14.3999L46.773 14.331C45.9738 15.2726 45.0603 16.0994 44.0556 16.7654C42.8681 17.5922 41.7492 17.7759 40.7216 17.2477C40.4019 17.064 40.105 16.8113 39.8538 16.5128L39.694 16.4439C39.1688 16.1683 38.712 15.663 38.4152 15.0889C38.1868 14.6295 38.2097 14.2621 38.3923 13.8487C38.5522 13.4353 38.7805 13.1597 39.2144 12.8841C41.2925 11.4602 42.891 9.55398 43.6445 7.67075H41.5208C40.7901 7.67075 40.2192 7.34922 39.9452 6.79803C39.1688 6.59133 38.712 5.97124 38.712 5.09852V3.30715C38.712 2.64113 39.0774 2.27366 39.7396 2.27366H47.2754C48.029 2.27366 48.5998 2.57223 48.851 3.14639C49.4448 3.28418 49.8558 3.67461 49.9928 4.2947V1.03348C49.9928 0.36746 50.3582 0 51.0204 0H53.167C53.8977 0 54.4686 0.321528 54.7655 0.872719C55.519 1.07942 55.9986 1.72247 55.9986 2.59519V17.9826C55.9986 18.7175 56.0214 19.3606 55.8844 19.9807C55.5419 21.5883 54.1261 22.1166 52.0023 21.9099ZM51.0204 13.4123V20.0726C52.8016 20.2563 53.6465 19.9118 53.852 18.9472C53.989 18.3271 53.9434 17.6152 53.9434 16.5817V1.79137C53.9434 1.28611 53.6922 1.03348 53.167 1.03348H51.0204V5.83344H47.9604C47.9833 5.55785 47.9833 5.30522 47.9833 5.02962V3.92724C47.9833 3.44495 47.7549 3.30715 47.2754 3.30715H39.7396V5.09852C39.7396 5.58081 39.968 5.83344 40.4932 5.83344H45.1288C44.9233 8.5894 42.7768 11.9425 39.1459 14.1472C39.3058 14.7444 39.694 15.2726 40.1735 15.5252C40.7672 15.8238 41.4523 15.8008 42.4571 15.1118C44.6493 13.642 46.5675 11.2535 47.4581 8.42864H51.0204V10.8171H46.773C46.499 11.5061 46.4761 12.4707 46.7273 12.93C47.0242 13.5272 47.7321 13.8028 51.0204 13.4123Z" fill="#1E2227"/>
</svg>
