<svg width="212" height="45" viewBox="0 0 212 45" fill="none" xmlns="http://www.w3.org/2000/svg">
<g clip-path="url(#clip0_1588_16831)">
<path d="M137.558 12.1353C137.307 12.2103 136.886 13.0716 136.736 13.2966C136.46 13.7031 136.196 14.1192 135.94 14.5378C135.432 15.37 134.962 16.2217 134.527 17.0926C133.675 18.7886 132.954 20.55 132.344 22.3476C131.553 24.675 130.946 27.063 130.491 29.4775C131.58 30.9146 130.058 32.6421 131.793 29.3759C131.793 29.3759 132.659 30.934 133.174 33.1768L130.494 39.8543L131.636 42.3777C132.569 42.6559 133.61 42.4745 134.389 41.8672C135.526 40.9817 135.671 39.6559 135.954 38.2018C136.346 36.1937 136.808 34.2848 137.447 32.3469C138.33 29.6686 139.375 27.0412 140.614 24.5057C142.005 21.6556 143.645 18.9169 145.61 16.4225C147.091 14.5426 148.76 12.8031 150.635 11.3127C143.812 10.8942 139.84 11.453 137.558 12.1353Z" fill="#1E2227"/>
<path d="M128.631 28.0065C128.338 25.0064 129.635 21.1644 130.228 18.9386C130.574 17.6418 130.344 16.2531 129.741 14.995C128.205 11.7796 124.097 10.5385 120.569 12.2248C120.04 12.4788 119.437 12.8514 119.11 13.1296C112.479 18.8055 111.893 26.025 111.879 28.2339C111.642 16.3764 118.058 11.1989 118.058 11.1989C112.711 8.42633 106.384 7.33518 102.223 7.76341C100.735 7.91583 98.2069 8.84246 97.1617 10.1755C95.1657 12.7183 95.4246 16.2531 97.74 18.0676C98.8311 18.9241 100.157 19.1999 101.514 19.0789C102.702 18.9749 103.902 18.1982 104.751 17.3926C105.247 16.9232 105.676 16.3789 106.007 15.7813C105.001 17.5861 103.718 19.3184 101.626 19.9063C99.0779 23.1241 92.035 33.1525 97.5005 39.5131C99.0731 41.3421 101.534 42.2204 103.851 41.5575C104.749 41.301 105.661 40.8147 106.409 39.9486C103.815 32.913 108.475 21.837 108.475 21.837C108.475 21.837 105.18 33.484 107.558 38.8744C107.575 38.9131 107.618 39.0365 107.618 39.0365C109.883 44.6398 118.74 43.5898 117.717 29.117C117.717 29.117 119.241 43.4664 126.48 42.8906C133.719 42.3147 134.895 28.7758 134.895 28.7758C133.806 32.5525 129.202 33.8493 128.633 28.0016L128.631 28.0065Z" fill="#1E2227"/>
<path d="M145.608 16.4225C147.088 14.5426 148.758 12.8031 150.633 11.3127C148.881 11.2063 147.321 11.1627 145.925 11.17C145.366 12.8587 144.851 15.0773 144.524 17.9612C144.928 17.3491 145.301 16.8144 145.608 16.4225Z" fill="#1E2227"/>
<path d="M144.422 18.9555C144.383 19.3765 144.347 19.8071 144.316 20.2547C143.735 28.679 145.801 33.7646 145.801 33.7646C142.596 33.7646 140 35.763 140 38.226C140 40.4833 142.037 42.2688 144.139 42.6486C146.164 43.0139 148.678 42.4502 150.642 41.947C153.817 41.1316 157.051 39.7115 159.239 37.1929C159.108 37.4542 159.776 38.9518 159.911 39.2397C160.201 39.8566 160.664 40.4324 161.155 40.9018C163.366 43.0188 167.902 43.3357 171.406 40.776C174.909 38.2163 176.286 34.1372 174.478 31.6646C173.811 30.7525 171.631 30.15 168.224 31.8872C172.903 28.6379 174.219 23.5741 174.979 19.7515C175.485 17.2111 175.035 13.974 174.176 12.3191C173.046 10.1392 170.714 8.83277 167.126 8.66099C162.918 8.45776 160.184 10.6183 157.33 13.7103C154.475 16.8047 153.229 21.4572 151.871 25.4419C152.53 19.3208 155.442 13.4659 159.93 9.25133C159.78 9.21503 153.713 6.2416 148.644 6.2537C148.644 6.2537 147.555 7.09565 146.45 9.76182L144.425 18.9579L144.422 18.9555ZM161.152 24.7645C158.798 31.7081 158.919 34.084 158.919 34.084C154.842 36.2856 150.679 35.5525 150.388 35.4993C150.384 35.4945 150.379 35.4896 150.374 35.4848C153.843 26.1846 158.532 20.6539 160.477 19.4708C162.425 18.2853 162.94 19.4902 161.152 24.7645Z" fill="#1E2227"/>
<path d="M145.555 38.8575C145.023 38.8575 144.524 38.8164 144.074 38.7365C141.892 38.3446 139.637 36.4478 139.637 33.9582C139.637 31.4324 142.129 29.3541 145.291 29.1509C145.098 28.5775 144.778 27.5009 144.486 25.9694C144.077 23.8282 143.653 20.354 143.956 15.9628C143.987 15.5128 144.024 15.0797 144.065 14.6563C144.679 9.58287 145.328 7.26993 146.114 5.35619C147.241 2.63196 148.374 1.73678 148.422 1.70049L148.519 1.62549H148.676C154.183 1.62549 160.047 4.63763 160.103 4.66666L160.543 4.90618L160.178 5.24974C158.196 7.11025 156.52 9.3119 155.216 11.7192C155.75 10.8119 156.358 9.96271 157.062 9.19818C159.933 6.08927 162.65 4.01827 166.582 4.01827C166.766 4.01827 166.952 4.02311 167.141 4.03278C170.734 4.20456 173.276 5.53522 174.496 7.88687C175.335 9.50545 175.877 12.8152 175.333 15.5563C174.951 17.4798 174.421 19.7395 173.397 21.9218C172.568 23.6928 171.527 25.1807 170.245 26.4267C170.915 26.2428 171.551 26.1484 172.149 26.1484C173.332 26.1484 174.285 26.5259 174.767 27.1839C176.688 29.8138 175.275 34.1276 171.614 36.8034C169.95 38.0204 167.92 38.6906 165.905 38.6906C163.913 38.6906 162.089 38.0373 160.899 36.8978C160.492 36.5083 159.933 35.8865 159.578 35.1292C159.285 34.505 159.106 34.0502 159.002 33.7139C157.071 35.6663 154.291 37.118 150.73 38.0325C149.131 38.4438 147.266 38.8623 145.553 38.8623L145.555 38.8575ZM150.87 30.9364C151.219 30.98 151.766 31.0284 152.448 31.0284C153.987 31.0284 156.28 30.7767 158.562 29.5961C158.588 28.8364 158.84 26.1944 160.812 20.3806C162.111 16.5483 161.966 15.5055 161.765 15.2273C161.736 15.1862 161.697 15.1475 161.584 15.1475C161.441 15.1475 161.165 15.2104 160.669 15.5128C158.985 16.5362 154.417 21.6387 150.87 30.9364Z" fill="#FE573A"/>
<path d="M148.676 1.98349C153.735 1.98349 159.311 4.64482 159.928 4.98111C155.44 9.19569 152.527 15.0482 151.869 21.1717C153.227 17.1869 154.473 12.5345 157.327 9.44005C160.059 6.48355 162.679 4.37868 166.582 4.37868C166.761 4.37868 166.94 4.38352 167.124 4.39078C170.711 4.56014 173.044 5.86903 174.174 8.0489C175.033 9.70376 175.48 12.9409 174.977 15.4813C174.217 19.3039 172.901 24.3677 168.222 27.6169C169.807 26.8089 171.125 26.5064 172.151 26.5064C173.329 26.5064 174.12 26.9056 174.476 27.3944C176.283 29.867 174.907 33.9461 171.403 36.5058C169.688 37.759 167.724 38.3227 165.907 38.3227C164.09 38.3227 162.28 37.7106 161.15 36.6316C160.661 36.1622 160.197 35.5888 159.906 34.9695C159.771 34.6816 159.103 33.184 159.234 32.9227C157.047 35.4388 153.812 36.8614 150.638 37.6768C149.111 38.0687 147.253 38.4945 145.552 38.4945C145.064 38.4945 144.587 38.4582 144.137 38.3784C142.034 38.001 139.997 36.2155 139.997 33.9557C139.997 31.4928 142.596 29.4944 145.799 29.4944C145.799 29.4944 143.733 24.4112 144.313 15.9845C144.345 15.5369 144.381 15.1063 144.42 14.6853C145.03 9.6457 145.68 7.3497 146.445 5.48918C147.548 2.82301 148.639 1.98107 148.639 1.98107C148.651 1.98107 148.661 1.98107 148.673 1.98107M152.445 31.3912C154.098 31.3912 156.524 31.1105 158.919 29.8162C158.919 29.8162 158.796 27.4403 161.152 20.4967C162.529 16.4321 162.541 14.7845 161.581 14.7845C161.295 14.7845 160.923 14.9296 160.477 15.203C158.535 16.3861 153.843 21.9169 150.374 31.217C150.379 31.2218 150.384 31.2267 150.389 31.2315C150.51 31.2533 151.286 31.3912 152.445 31.3912ZM148.676 1.25767H148.639H148.393L148.197 1.40767C148.068 1.50687 146.922 2.44801 145.775 5.21095C144.976 7.15373 144.318 9.49328 143.699 14.5958V14.6055V14.6151C143.653 15.1087 143.619 15.5272 143.59 15.9313C143.143 22.437 144.231 26.9637 144.805 28.8242C141.676 29.2065 139.271 31.3597 139.271 33.9509C139.271 35.1945 139.801 36.4114 140.764 37.3792C141.63 38.2502 142.813 38.8719 144.009 39.0873C144.48 39.172 145.001 39.2155 145.555 39.2155C147.306 39.2155 149.201 38.7897 150.822 38.3736C154.206 37.505 156.899 36.155 158.852 34.3549C158.956 34.6187 159.086 34.9211 159.251 35.2743C159.631 36.0824 160.221 36.7405 160.649 37.1518C161.907 38.3542 163.823 39.0461 165.907 39.0461C167.99 39.0461 170.104 38.3518 171.832 37.0889C173.646 35.763 174.991 34.0066 175.618 32.146C176.276 30.196 176.078 28.3549 175.062 26.9637C174.51 26.2113 173.45 25.7782 172.149 25.7782C171.87 25.7782 171.585 25.7976 171.292 25.8338C173.929 22.812 175.003 19.0547 175.688 15.6192C176.191 13.0933 175.809 9.61909 174.82 7.71019C173.537 5.23757 170.888 3.83916 167.16 3.66254C166.966 3.65287 166.773 3.64803 166.584 3.64803C163.923 3.64803 161.808 4.5553 159.841 6.0771C160.032 5.88354 160.228 5.69483 160.427 5.50854L161.157 4.82143L160.277 4.34239C160.221 4.31094 154.269 1.25525 148.676 1.25525V1.25767ZM151.378 30.6218C153.2 25.9572 155.203 22.604 156.597 20.5741C158.479 17.8329 160.066 16.299 160.855 15.82C161.194 15.6143 161.394 15.5442 161.498 15.52C161.569 15.8006 161.624 16.8434 160.465 20.262C158.646 25.6282 158.278 28.3452 158.21 29.3637C156.055 30.4307 153.904 30.663 152.447 30.663C152.036 30.663 151.676 30.6436 151.381 30.6218H151.378Z" fill="#1E2227"/>
<path d="M171.432 17.1677C172.775 17.1677 173.864 15.4844 173.864 13.4079C173.864 11.3315 172.775 9.64819 171.432 9.64819C170.09 9.64819 169.001 11.3315 169.001 13.4079C169.001 15.4844 170.09 17.1677 171.432 17.1677Z" fill="white"/>
<path d="M132.509 38.5985C132.18 38.5985 131.854 38.5525 131.542 38.4606C129.263 37.9574 129.2 36.4839 129.224 36.0968C128.728 34.0525 129.396 29.8814 129.838 27.1136C129.964 26.3225 130.073 25.6402 130.131 25.1685L130.136 25.1443C130.61 22.6281 131.237 20.2135 132.001 17.9635C132.638 16.0909 133.378 14.3078 134.203 12.6626C134.651 11.7699 135.132 10.9013 135.63 10.0811C135.889 9.65774 136.16 9.23434 136.436 8.82547C136.472 8.77466 136.521 8.68514 136.581 8.57869C136.913 7.99803 137.152 7.60851 137.457 7.51657C139.632 6.86576 142.579 6.5343 146.213 6.5343C147.594 6.5343 149.089 6.58269 150.657 6.67947L151.601 6.73753L150.86 7.32544C149.106 8.72143 147.435 10.4198 145.893 12.3771C144.079 14.678 142.412 17.3756 140.939 20.395C139.76 22.8071 138.701 25.4297 137.788 28.1903C137.208 29.9516 136.736 31.7976 136.308 34.0016C136.281 34.142 136.255 34.2799 136.228 34.4154C135.979 35.7436 135.744 36.9993 134.607 37.8824C134.017 38.342 133.271 38.5961 132.509 38.5961V38.5985Z" fill="#FE573A"/>
<path d="M146.21 6.89977C147.531 6.89977 149.002 6.94332 150.633 7.04493C148.758 8.53528 147.088 10.2748 145.608 12.1547C143.643 14.6491 142.003 17.3878 140.612 20.2379C139.373 22.7734 138.328 25.4009 137.445 28.0791C136.806 30.0171 136.344 31.926 135.952 33.934C135.669 35.3881 135.524 36.7139 134.386 37.5994C133.845 38.0204 133.179 38.2357 132.511 38.2357C132.216 38.2357 131.919 38.1946 131.633 38.1075C129.311 37.6018 129.594 36.0655 129.594 36.0655C128.94 33.559 130.237 27.3557 130.494 25.2073C130.949 22.7927 131.556 20.4048 132.347 18.0774C132.957 16.2797 133.678 14.5209 134.529 12.8224C134.965 11.9515 135.436 11.0974 135.942 10.2676C136.199 9.84901 136.462 9.43287 136.738 9.02641C136.891 8.80141 137.309 7.94011 137.561 7.8651C139.295 7.34494 142.01 6.89977 146.212 6.89977M146.21 6.17395C142.54 6.17395 139.559 6.51025 137.35 7.17074C136.915 7.30139 136.636 7.74172 136.264 8.39979C136.216 8.48447 136.157 8.5885 136.133 8.62237C135.857 9.03367 135.582 9.45948 135.32 9.89014C134.815 10.72 134.328 11.5958 133.878 12.4982C133.046 14.1579 132.299 15.9556 131.657 17.8427C130.888 20.1072 130.257 22.5387 129.778 25.0718L129.773 25.096V25.1202C129.715 25.5847 129.606 26.2646 129.48 27.0509C129.011 29.9832 128.372 33.9752 128.856 36.1067C128.798 36.9196 129.262 38.3204 131.452 38.8067C131.795 38.9059 132.151 38.9567 132.511 38.9567C133.353 38.9567 134.178 38.6761 134.834 38.168C136.08 37.2002 136.339 35.8163 136.588 34.4808C136.615 34.3453 136.639 34.2074 136.666 34.0695C137.091 31.8824 137.558 30.0509 138.137 28.3041C139.041 25.5605 140.094 22.9548 141.267 20.5548C142.731 17.5596 144.383 14.8838 146.181 12.6023C147.705 10.6692 149.355 8.99012 151.088 7.61107L152.566 6.43524L150.679 6.31911C149.104 6.22234 147.599 6.17395 146.21 6.17395Z" fill="#1E2227"/>
<path d="M142.791 8.48197C143.711 8.39246 143.742 8.28358 144.976 8.21342C145.755 8.16987 146.215 9.07956 145.712 9.68199C144.567 11.0514 142.891 13.1006 141.606 14.8522C141.095 15.549 140 15.1885 140 14.3224L141.127 10.1465C141.388 8.96827 141.966 8.56181 142.794 8.48197H142.791Z" fill="white"/>
<path d="M126.057 39.0049C123.079 39.0049 120.625 36.5372 118.966 31.8677C118.605 30.8564 118.32 29.8403 118.092 28.9112C117.85 32.2887 116.931 34.9476 115.402 36.588C114.383 37.6815 113.106 38.284 111.807 38.284C109.857 38.284 108.124 36.9896 107.282 34.9065C107.278 34.892 107.241 34.7904 107.224 34.7541C106.114 32.2355 106.194 28.4588 106.612 25.0741C105.92 28.4782 105.601 32.4436 106.748 35.5573C106.794 35.6807 106.767 35.821 106.682 35.9202C105.966 36.7477 105.049 37.3259 103.951 37.6404C103.407 37.7952 102.845 37.8751 102.277 37.8751C100.373 37.8751 98.5291 37.0041 97.225 35.4847C91.5395 28.8725 98.938 18.4522 101.34 15.4159C101.389 15.3554 101.454 15.3118 101.527 15.2925C101.742 15.232 101.948 15.1594 102.146 15.0747C101.95 15.1231 101.749 15.1594 101.546 15.1764C101.333 15.1957 101.123 15.2054 100.917 15.2054C99.6033 15.2054 98.4589 14.8304 97.5154 14.0901C95.0476 12.1545 94.7597 8.38513 96.8767 5.68751C98.0428 4.202 100.733 3.28747 102.187 3.13747C102.78 3.07698 103.421 3.04553 104.091 3.04553C108.637 3.04553 113.921 4.37862 118.225 6.61171C118.334 6.66736 118.407 6.77623 118.419 6.8972C118.431 7.01817 118.38 7.13914 118.286 7.21656C118.237 7.25527 114.683 10.2142 113.045 16.6256C114.105 14.0247 115.886 11.1457 118.876 8.58594C119.222 8.28835 119.856 7.89641 120.412 7.62786C121.494 7.11253 122.682 6.83914 123.85 6.83914C126.589 6.83914 128.972 8.269 130.071 10.5674C130.755 11.9973 130.93 13.4489 130.581 14.7626C130.489 15.1062 130.38 15.4885 130.264 15.9022C129.628 18.1522 128.755 21.2321 128.994 23.7023C129.217 26.0007 130.138 27.3725 131.459 27.3725C132.78 27.3725 134.051 26.1265 134.547 24.4112C134.593 24.2539 134.735 24.1499 134.895 24.1499C134.917 24.1499 134.939 24.1499 134.963 24.1571C135.147 24.191 135.275 24.3579 135.258 24.5442C135.246 24.6846 134.946 28.0136 133.746 31.4734C132.127 36.1428 129.623 38.7412 126.509 38.9904C126.359 39.0025 126.207 39.0098 126.059 39.0098L126.057 39.0049Z" fill="#FE573A"/>
<path d="M104.089 3.40849C108.136 3.40849 113.459 4.55044 118.056 6.93354C118.056 6.93354 111.64 12.1086 111.877 23.9685C111.891 21.7572 112.477 14.5377 119.108 8.86422C119.435 8.58599 120.035 8.21098 120.567 7.95937C121.637 7.44887 122.759 7.20693 123.848 7.20693C126.35 7.20693 128.67 8.48921 129.742 10.7296C130.344 11.9901 130.574 13.3788 130.228 14.6732C129.635 16.8966 128.341 20.741 128.631 23.7411C128.909 26.5863 130.141 27.7403 131.457 27.7403C132.848 27.7403 134.334 26.4556 134.893 24.5153C134.893 24.5153 133.717 38.0518 126.478 38.63C126.335 38.6421 126.195 38.6469 126.057 38.6469C119.181 38.6469 117.715 24.8564 117.715 24.8564C118.373 34.1711 114.94 37.9235 111.804 37.9235C110.067 37.9235 108.422 36.7719 107.616 34.7735C107.616 34.7735 107.573 34.6525 107.556 34.6114C105.178 29.221 108.473 17.574 108.473 17.574C108.473 17.574 103.815 28.65 106.407 35.6856C105.659 36.5493 104.749 37.0356 103.849 37.2945C103.329 37.4445 102.799 37.5146 102.277 37.5146C100.472 37.5146 98.7178 36.6679 97.4984 35.2501C92.0306 28.8895 99.0758 18.8611 101.623 15.6434C103.716 15.0554 104.999 13.3232 106.005 11.5183C105.671 12.1159 105.245 12.6602 104.749 13.1296C103.9 13.9328 102.7 14.7095 101.512 14.8159C101.311 14.8329 101.113 14.8425 100.915 14.8425C99.7678 14.8425 98.667 14.5353 97.7355 13.8046C95.4201 11.9877 95.1637 8.45534 97.1573 5.91256C98.2024 4.57948 100.731 3.65285 102.219 3.50043C102.802 3.43994 103.426 3.41091 104.086 3.41091M104.089 2.68267C103.407 2.68267 102.753 2.71413 102.148 2.77703C100.634 2.93429 97.8226 3.89479 96.5911 5.46255C94.3532 8.31744 94.6653 12.3143 97.2927 14.3732C98.2653 15.1353 99.4315 15.5369 100.765 15.5635C99.4 17.3321 97.2056 20.4918 95.8798 24.0096C94.0604 28.8363 94.4209 32.7775 96.9516 35.7195C98.3258 37.3187 100.269 38.2356 102.279 38.2356C102.879 38.2356 103.477 38.1509 104.053 37.9864C105.219 37.6526 106.196 37.0356 106.958 36.155C107.13 35.9541 107.181 35.6783 107.091 35.4291C107.057 35.3372 107.026 35.2477 106.995 35.1533C107.909 37.309 109.745 38.6421 111.809 38.6421C113.21 38.6421 114.582 37.9985 115.67 36.8324C116.67 35.7582 117.754 33.9315 118.25 30.8662C119.479 34.8509 121.811 39.3655 126.059 39.3655C126.217 39.3655 126.379 39.3582 126.538 39.3461C129.807 39.0848 132.417 36.4017 134.087 31.5871C135.301 28.0863 135.604 24.7137 135.618 24.5709C135.65 24.1983 135.396 23.862 135.028 23.7943C134.984 23.787 134.938 23.7822 134.895 23.7822C134.578 23.7822 134.29 23.9927 134.198 24.3072C133.692 26.0613 132.41 27.0072 131.459 27.0072C130.346 27.0072 129.56 25.7564 129.355 23.6636C129.12 21.2612 129.984 18.22 130.613 15.999C130.729 15.5901 130.838 15.203 130.932 14.8546C131.305 13.4562 131.121 11.9199 130.4 10.4102C129.241 7.98356 126.732 6.47386 123.853 6.47386C122.631 6.47386 121.387 6.75935 120.26 7.29887C119.667 7.58194 119.016 7.9884 118.644 8.30776C117.183 9.55616 116.007 10.882 115.058 12.2151C115.199 11.9344 115.339 11.6731 115.477 11.4264C116.965 8.77712 118.504 7.50694 118.52 7.49242C118.709 7.33758 118.811 7.09806 118.784 6.8537C118.758 6.60934 118.615 6.39644 118.397 6.28273C114.042 4.02544 108.695 2.67542 104.096 2.67542L104.089 2.68267Z" fill="#1E2227"/>
<path d="M125.493 17.1677C126.836 17.1677 127.924 15.4844 127.924 13.4079C127.924 11.3315 126.836 9.64819 125.493 9.64819C124.15 9.64819 123.062 11.3315 123.062 13.4079C123.062 15.4844 124.15 17.1677 125.493 17.1677Z" fill="white"/>
<path d="M73.5877 31.9427C73.3579 33.9581 73.1885 35.9565 73.0337 37.8944C74.3063 35.8428 74.5797 33.5904 73.5877 31.9427Z" fill="#1E2227"/>
<path d="M95.1058 10.9351C93.1655 8.82785 90.0541 7.88671 87.2138 8.11413C83.8048 8.38994 81.5742 10.4706 80.0088 12.515C75.8886 17.9006 74.3813 24.9894 73.5902 31.9064C74.1999 32.8089 75.9128 35.9758 73.0894 39.6291C73.4136 41.0445 74.4829 42.1284 76.0991 42.3001C78.7991 42.5856 79.7572 39.1114 80.2653 37.0984C81.1145 33.7452 82.3992 29.3661 83.7637 26.0249C83.7952 26.0442 83.8266 26.0636 83.8581 26.0829C84.6734 26.5547 85.6266 26.8862 86.696 27.041C90.7001 27.6217 94.6461 25.0571 96.3542 21.5563C98.176 17.8256 97.5542 13.5892 95.1034 10.9351H95.1058Z" fill="#1E2227"/>
<path d="M73.4131 31.6621C72.7453 30.75 70.5654 30.1476 67.1589 31.8847C71.838 28.6355 73.1542 23.5717 73.9139 19.749C74.4195 17.2087 73.9695 13.9715 73.1106 12.3167C71.9808 10.1368 69.6485 8.83033 66.0605 8.65855C61.8532 8.45532 59.1193 10.6158 56.2644 13.7078C53.4095 16.8022 52.1635 21.4547 50.8063 25.4394C51.4643 19.3184 54.3773 13.4635 58.8653 9.24888C58.7152 9.21259 52.6474 6.23916 47.5788 6.25126C44.0683 6.25852 40.0037 6.84159 38.3222 10.6715C38.1311 11.1046 37.998 11.5642 37.9182 12.0288C37.4536 14.7312 38.9972 17.4748 41.5545 18.4716C42.2561 18.745 42.9336 18.9095 43.6812 18.745C44.2037 18.6313 44.7046 18.4547 45.1836 18.2127C45.7522 17.9248 46.2796 17.5595 46.761 17.1409C47.2957 16.6764 48.0457 15.7595 48.3675 15.1183C48.3675 15.1183 47.4167 19.0063 43.0328 19.7563C42.515 24.9846 44.3126 30.1427 46.9086 34.8509C45.6263 32.7968 43.1949 31.471 40.7827 31.6476C38.3657 31.8291 36.1036 33.5855 35.4722 35.9227C34.8407 38.2646 35.9802 40.9986 38.148 42.0728C40.9327 43.4494 45.6288 42.3074 48.5538 41.2719C53.7652 39.426 54.4862 38.8114 58.2652 37.1759C58.4757 38.7292 59.0733 39.9171 60.0919 40.8921C62.3032 43.0091 66.8396 43.326 70.3428 40.7663C73.8461 38.2066 75.2228 34.1275 73.4155 31.6549L73.4131 31.6621ZM60.0895 24.7644C57.7354 31.7081 57.8564 34.0839 57.8564 34.0839C53.6273 36.3678 49.3062 35.4944 49.3062 35.4944C52.7756 26.187 57.4693 20.6539 59.412 19.4708C61.3596 18.2853 61.875 19.4902 60.087 24.7644H60.0895Z" fill="#1E2227"/>
<path d="M72.6728 33.5976C72.8252 31.6984 72.997 29.6612 73.2268 27.6338L73.3478 26.5741L73.8994 27.4886C74.9397 29.2161 74.7317 31.5822 73.3454 33.8202L72.5566 35.0904L72.6752 33.5976H72.6728Z" fill="#FE573A"/>
<path d="M73.5878 27.675C74.5822 29.3226 74.3088 31.5751 73.0337 33.6267C73.1886 31.6888 73.3579 29.688 73.5878 27.675ZM73.1063 25.4734L72.8644 27.5928C72.6321 29.6251 72.4603 31.6646 72.3103 33.5687L72.0732 36.5518L73.6507 34.009C75.112 31.6525 75.3201 29.146 74.2096 27.3L73.1087 25.4734H73.1063Z" fill="#1E2227"/>
<path d="M76.4086 38.4123C76.2949 38.4123 76.1788 38.4051 76.0626 38.393C74.386 38.2164 73.1134 37.0841 72.736 35.4413L72.6973 35.2744L72.8013 35.1389C75.482 31.6719 73.8513 28.6767 73.2876 27.8396L73.2126 27.7283L73.2271 27.5952C73.9191 21.5274 75.2836 13.8192 79.7183 8.02478C81.8813 5.19893 84.3224 3.71342 87.1822 3.48358C87.4677 3.45938 87.7604 3.44971 88.0531 3.44971C90.925 3.44971 93.6589 4.56021 95.3718 6.42072C97.992 9.25867 98.517 13.6886 96.6807 17.4483C94.9944 20.9008 91.4403 23.221 87.8402 23.221C87.441 23.221 87.037 23.1919 86.6451 23.1339C85.5515 22.9742 84.5523 22.6379 83.6765 22.1298C82.4668 21.4137 81.5111 19.9693 80.9813 18.0604C80.8095 17.4386 80.6885 16.7951 80.6184 16.1491C80.4514 18.1354 80.9063 20.7145 83.5434 22.8024L83.7611 22.9742L83.6499 23.2307C82.2418 26.4872 81.5692 29.1461 80.72 32.5139L80.6184 32.9203C80.1683 34.7034 79.2296 38.4123 76.4086 38.4123Z" fill="#FE573A"/>
<path d="M88.0554 3.81493C90.6538 3.81493 93.3587 4.76817 95.1079 6.66739C97.5588 9.32388 98.1805 13.5578 96.3587 17.2885C94.8127 20.4555 91.4377 22.8555 87.8425 22.8555C87.4626 22.8555 87.0804 22.8289 86.6981 22.7733C85.6287 22.6184 84.6755 22.287 83.8602 21.8152C81.4359 20.3805 80.4561 15.9675 81.1214 12.8489C81.1214 12.8489 78.0778 18.9361 83.3206 23.0878C81.8448 26.4991 81.1819 29.2282 80.2698 32.8307C79.7811 34.7638 78.8786 38.0469 76.4109 38.0469C76.3117 38.0469 76.2076 38.0421 76.1012 38.03C74.485 37.8582 73.4157 36.7743 73.0915 35.359C75.9149 31.7057 74.202 28.5387 73.5923 27.6363C74.381 20.7192 75.8883 13.6304 80.0109 8.24483C81.5763 6.20045 83.8045 4.11977 87.2159 3.84396C87.4941 3.82219 87.7747 3.81009 88.0554 3.81009M88.0554 3.08911C87.7554 3.08911 87.453 3.10121 87.1554 3.1254C84.1868 3.36492 81.6609 4.8964 79.4327 7.80692C74.9447 13.6739 73.5681 21.4426 72.8689 27.5564L72.8374 27.8226L72.9874 28.0451C73.5173 28.829 75.0463 31.6428 72.5132 34.9186L72.3027 35.1896L72.3802 35.5235C72.7914 37.3211 74.1874 38.5598 76.0213 38.7534C76.1496 38.7679 76.2802 38.7751 76.406 38.7751C79.5101 38.7751 80.4948 34.8823 80.9666 33.0097L81.0682 32.6033C81.915 29.2524 82.5827 26.6056 83.9787 23.3757L84.1989 22.8652L84.0295 22.7297C84.811 23.1047 85.6674 23.3588 86.5892 23.4943C87.0005 23.5547 87.4191 23.5838 87.8376 23.5838C91.5756 23.5838 95.2603 21.1837 97.0047 17.6079C98.9064 13.7151 98.3547 9.12065 95.6353 6.17625C93.8571 4.24316 91.0216 3.08911 88.0506 3.08911H88.0554Z" fill="#1E2227"/>
<path d="M41.3973 38.8091C40.0352 38.8091 38.8884 38.5841 37.986 38.1365C35.69 36.9969 34.4319 34.113 35.119 31.5654C35.7771 29.1315 38.1481 27.2202 40.7538 27.0242C40.9062 27.0121 41.0635 27.0073 41.2183 27.0073C42.699 27.0073 44.1796 27.5323 45.3917 28.4323C43.1635 23.7411 42.2731 19.4757 42.6699 15.4571L42.6965 15.1813L42.9699 15.1353C43.8482 14.9853 44.5812 14.6998 45.1934 14.3466C44.7385 14.5619 44.257 14.724 43.7587 14.8329C43.5361 14.8813 43.3086 14.9055 43.0812 14.9055C42.4425 14.9055 41.8594 14.7119 41.4239 14.5426C38.6876 13.478 37.0642 10.599 37.5602 7.70054C37.6473 7.19488 37.7924 6.711 37.9908 6.25858C39.8078 2.11658 44.3321 1.62786 47.5789 1.62061H47.6103C52.887 1.62061 59.0057 4.64243 59.054 4.67146L59.4581 4.92066L59.1121 5.24485C57.1306 7.10537 55.454 9.30701 54.1499 11.7143C54.6846 10.807 55.2919 9.95783 55.9984 9.1933C58.8702 6.08438 61.5871 4.01338 65.5187 4.01338C65.7025 4.01338 65.8888 4.01822 66.0775 4.0279C69.6703 4.19968 72.2131 5.53034 73.4325 7.88199C74.272 9.50056 74.814 12.8103 74.2672 15.5515C73.8849 17.4749 73.3551 19.7346 72.3317 21.9169C71.5018 23.6879 70.4615 25.1758 69.1792 26.4218C69.8494 26.2379 70.4857 26.1436 71.0833 26.1436C72.2663 26.1436 73.222 26.521 73.7035 27.1791C75.6245 29.8089 74.2115 34.1227 70.5534 36.7986C68.8889 38.0155 66.859 38.6857 64.8437 38.6857C62.8525 38.6857 61.0283 38.0324 59.8379 36.8929C58.8605 35.9566 58.2508 34.8219 57.9798 33.4332C56.9879 33.8687 56.2209 34.2267 55.4758 34.5751C53.7338 35.3881 52.2289 36.0921 48.6724 37.3526C47.1385 37.897 44.153 38.8091 41.3949 38.8091H41.3973ZM49.8047 30.9364C50.1555 30.9799 50.7023 31.0283 51.3822 31.0283C52.9209 31.0283 55.2145 30.7767 57.496 29.596C57.5226 28.8363 57.7742 26.1944 59.746 20.3806C61.0452 16.5482 60.9 15.5055 60.6992 15.2273C60.6702 15.1861 60.6315 15.1474 60.5178 15.1474C60.375 15.1474 60.0992 15.2103 59.6032 15.5127C57.9194 16.5362 53.3491 21.6411 49.8047 30.9364Z" fill="#FE573A"/>
<path d="M47.6105 1.98385C52.6718 1.98385 58.713 4.88712 58.8655 4.98148C54.3775 9.19606 51.4645 15.0486 50.8065 21.172C52.1638 17.1873 53.4097 12.5348 56.2646 9.44042C58.9961 6.48392 61.6163 4.37905 65.5188 4.37905C65.6978 4.37905 65.8769 4.38389 66.0607 4.39115C69.6487 4.5605 71.981 5.86939 73.1108 8.04927C73.9697 9.70413 74.4173 12.9413 73.9141 15.4816C73.1544 19.3043 71.8382 24.3681 67.1591 27.6173C68.7438 26.8092 70.0624 26.5068 71.0882 26.5068C72.2665 26.5068 73.0576 26.906 73.4133 27.3947C75.2205 29.8673 73.8439 33.9464 70.3406 36.5061C68.6253 37.7594 66.6607 38.3231 64.8438 38.3231C63.0268 38.3231 61.2171 37.711 60.0873 36.632C59.0687 35.6569 58.4711 34.469 58.2606 32.9158C54.4815 34.5513 53.7605 35.1658 48.5492 37.0118C46.5919 37.7062 43.8362 38.4465 41.395 38.4465C40.1926 38.4465 39.0652 38.2675 38.1458 37.8126C35.9756 36.736 34.8361 34.0021 35.4699 31.6625C36.1014 29.3254 38.366 27.5713 40.7805 27.3875C40.9257 27.3778 41.0708 27.3705 41.216 27.3705C43.4806 27.3705 45.6991 28.6576 46.904 30.5883C44.3104 25.8802 42.5104 20.722 43.0281 15.4937C47.4121 14.7437 48.3629 10.8558 48.3629 10.8558C48.0435 11.4969 47.2935 12.4138 46.7564 12.8784C46.275 13.2945 45.7475 13.6623 45.179 13.9502C44.7023 14.1897 44.1991 14.3687 43.6765 14.4824C43.4709 14.5284 43.2725 14.5478 43.0765 14.5478C42.5563 14.5478 42.0604 14.4074 41.5523 14.209C38.995 13.2122 37.4514 10.4687 37.916 7.7662C37.9958 7.29925 38.1289 6.84199 38.32 6.40892C40.0039 2.57418 44.0685 1.99111 47.579 1.98385C47.5887 1.98385 47.5984 1.98385 47.6105 1.98385ZM51.3823 31.3916C53.0347 31.3916 55.4614 31.1109 57.8566 29.8165C57.8566 29.8165 57.7332 27.4407 60.0897 20.497C61.4663 16.4325 61.4784 14.7849 60.5179 14.7849C60.2324 14.7849 59.8598 14.93 59.4147 15.2034C57.4695 16.3865 52.7783 21.9221 49.3089 31.227C49.3089 31.227 50.1194 31.3916 51.3823 31.3916ZM47.6105 1.25803H47.5766C45.2588 1.26287 43.4902 1.52417 42.0096 2.08063C39.9579 2.84999 38.4942 4.20727 37.6571 6.11133C37.4466 6.59037 37.2942 7.1057 37.2022 7.63797C36.6748 10.7058 38.395 13.7518 41.291 14.8792C41.5813 14.9929 41.937 15.1163 42.3313 15.1937L42.3096 15.4212C41.937 19.1906 42.6749 23.1632 44.562 27.4867C43.5241 26.9447 42.3701 26.6423 41.2184 26.6423C41.0563 26.6423 40.8894 26.6495 40.7273 26.6592C37.9716 26.8673 35.4675 28.8899 34.7683 31.469C34.0377 34.1763 35.378 37.2465 37.824 38.4586C38.7773 38.9304 39.9797 39.1675 41.395 39.1675C44.2064 39.1675 47.2354 38.2408 48.7935 37.6892C52.367 36.4239 53.8767 35.7174 55.6283 34.8997C56.267 34.6021 56.9227 34.2948 57.7211 33.9392C58.0429 35.2045 58.6574 36.2618 59.5864 37.1497C60.8445 38.3521 62.7607 39.0441 64.8438 39.0441C66.9269 39.0441 69.0414 38.3497 70.7689 37.0868C72.5834 35.761 73.9286 34.0045 74.5552 32.144C75.2133 30.194 75.0149 28.3528 73.9988 26.9616C73.4471 26.2092 72.3874 25.7761 71.0858 25.7761C70.8076 25.7761 70.5221 25.7955 70.2293 25.8318C72.8665 22.81 73.9407 19.0527 74.6254 15.6171C75.1286 13.0913 74.7463 9.61703 73.7568 7.70813C72.4745 5.23551 69.8253 3.83711 66.097 3.66049C65.9035 3.65081 65.7099 3.64597 65.5212 3.64597C62.8599 3.64597 60.7453 4.55325 58.7784 6.07504C58.9695 5.88149 59.1655 5.69278 59.3639 5.50649L60.0582 4.85567L59.2477 4.35969C59.1969 4.32824 52.967 1.25562 47.6129 1.25562L47.6105 1.25803ZM50.3153 30.6222C52.1371 25.96 54.138 22.6092 55.5315 20.5793C57.4138 17.8357 59.0034 16.3018 59.7921 15.8228C60.1308 15.6171 60.3316 15.547 60.4357 15.5228C60.5058 15.8034 60.5615 16.8462 59.4026 20.2648C57.5832 25.631 57.2154 28.348 57.1477 29.3665C54.992 30.4335 52.8412 30.6657 51.3847 30.6657C50.9734 30.6657 50.6129 30.6464 50.3178 30.6222H50.3153Z" fill="#1E2227"/>
<path d="M70.5531 16.1732C71.8959 16.1732 72.9846 14.4899 72.9846 12.4134C72.9846 10.337 71.8959 8.65369 70.5531 8.65369C69.2102 8.65369 68.1216 10.337 68.1216 12.4134C68.1216 14.4899 69.2102 16.1732 70.5531 16.1732Z" fill="white"/>
<path d="M93.1673 16.1732C94.5102 16.1732 95.5988 14.4899 95.5988 12.4134C95.5988 10.337 94.5102 8.65369 93.1673 8.65369C91.8245 8.65369 90.7358 10.337 90.7358 12.4134C90.7358 14.4899 91.8245 16.1732 93.1673 16.1732Z" fill="white"/>
</g>
<defs>
<clipPath id="clip0_1588_16831">
<rect width="141.43" height="41.6547" fill="white" transform="translate(34.5698 1.25769)"/>
</clipPath>
</defs>
</svg>
