<svg width="26" height="26" viewBox="0 0 26 26" fill="none" xmlns="http://www.w3.org/2000/svg">
<g id="&#227;&#133;&#139;">
<path id="&#227;&#133;&#139;_2" d="M12.5147 23.324C11.9632 23.252 11.6276 22.964 11.5317 22.484H11.4358C10.7645 22.412 10.4289 21.98 10.4289 21.308V20.324H2.97283C2.20565 20.324 1.60629 19.988 1.29462 19.412C0.503463 19.196 0 18.524 0 17.612V15.644C0 14.948 0.383591 14.564 1.07885 14.564H1.70219L1.60629 14.42C0.815131 14.204 0.311668 13.532 0.311668 12.62V10.58C0.311668 9.884 0.695259 9.5 1.39052 9.5H13.7134C14.4086 9.5 14.9361 9.836 15.2238 10.388C16.0389 10.58 16.5424 11.3 16.5424 12.212C16.5424 14.66 16.5424 20.636 16.4225 21.26C16.1108 22.988 14.6484 23.588 12.5147 23.324ZM11.5077 18.404V21.404C13.2339 21.62 14.097 21.26 14.2888 20.228C14.3847 19.7 14.3847 13.82 14.3847 11.372C14.3847 10.868 14.1449 10.58 13.7134 10.58H1.39052V12.62C1.39052 13.148 1.67821 13.412 2.20565 13.412H11.5077V15.644H1.07885V17.612C1.07885 18.14 1.36654 18.404 1.89398 18.404H11.5077Z" fill="#1E2227"/>
<path id="&#227;&#133;&#139;_3" d="M20.6889 11.3355C20.3105 11.1966 20.1182 10.9481 20.1252 10.6102L20.0575 10.5944C19.5944 10.4358 19.4245 10.0907 19.5292 9.6396L19.6825 8.9791L14.4144 7.75393C13.8723 7.62787 13.5012 7.30385 13.3707 6.866C12.8454 6.59102 12.5943 6.05722 12.7364 5.44505L13.0429 4.12406C13.1514 3.65688 13.4822 3.46216 13.9734 3.57641L14.4139 3.67883L14.3685 3.56642C13.8432 3.29143 13.5921 2.75763 13.7342 2.14546L14.052 0.776145C14.1604 0.308966 14.4912 0.114244 14.9825 0.228488L23.6893 2.25337C24.1805 2.36761 24.5008 2.67981 24.6181 3.09761C25.1641 3.36043 25.4077 3.92644 25.2656 4.53861C24.8843 6.18179 23.9534 10.1931 23.7715 10.5922C23.2821 11.7009 22.1554 11.8634 20.6889 11.3355ZM20.7438 7.86761L20.2765 9.88131C21.4625 10.3099 22.1284 10.2101 22.4247 9.54891C22.5747 9.21026 23.4906 5.2634 23.8719 3.62022C23.9505 3.28192 23.8259 3.04921 23.521 2.9783L14.8142 0.953421L14.4965 2.32274C14.4142 2.67715 14.5764 2.90163 14.949 2.9883L21.5215 4.51681L21.1738 6.015L13.8052 4.30134L13.4986 5.62233C13.4164 5.97674 13.5785 6.20122 13.9512 6.28789L20.7438 7.86761Z" fill="#1E2227"/>
</g>
</svg>
